HIERARCHY
ROOT Hips
{
	OFFSET 47.210701 -14.479613 84.165001
	CHANNELS 6 Xposition Yposition Zposition Xrotation Yrotation Zrotation
	JOINT spine
	{
		OFFSET 0.000000 -0.359108 6.244789
		CHANNELS 3 Xrotation Yrotation Zrotation
		JOINT spine1
		{
			OFFSET 0.000000 -0.000002 9.069412
			CHANNELS 3 Xrotation Yrotation Zrotation
			JOINT spine2
			{
				OFFSET 0.000000 -0.000001 8.690140
				CHANNELS 3 Xrotation Yrotation Zrotation
				JOINT Neck
				{
					OFFSET 0.000000 -1.063724 22.311203
					CHANNELS 3 Xrotation Yrotation Zrotation
					JOINT Head
					{
						OFFSET 0.000000 -0.000001 6.740814
						CHANNELS 3 Xrotation Yrotation Zrotation
						End Site
						{
							OFFSET 0.000000 5.380967 16.316498
						}
					}
				}
				JOINT RightShoulder
				{
					OFFSET -3.659161 0.509512 9.384682
					CHANNELS 3 Xrotation Yrotation Zrotation
					JOINT RightArm
					{
						OFFSET 0.000000 -0.000002 12.308907
						CHANNELS 3 Xrotation Yrotation Zrotation
						JOINT RightArmRoll
						{
							OFFSET 0.000000 -0.000001 6.213745
							CHANNELS 3 Xrotation Yrotation Zrotation
							JOINT RightForeArm
							{
								OFFSET 0.000000 -0.000003 18.098495
								CHANNELS 3 Xrotation Yrotation Zrotation
								JOINT RightForeArmRoll
								{
									OFFSET 0.000000 -0.000002 6.972794
									CHANNELS 3 Xrotation Yrotation Zrotation
									JOINT RightHand
									{
										OFFSET 0.000000 -0.000002 13.992798
										CHANNELS 3 Xrotation Yrotation Zrotation
										End Site
										{
											OFFSET 0.000000 0.000000 0.100006
										}
									}
								}
							}
						}
					}
				}
				JOINT LeftShoulder
				{
					OFFSET 3.659161 0.509512 9.384682
					CHANNELS 3 Xrotation Yrotation Zrotation
					JOINT LeftArm
					{
						OFFSET 0.000000 -0.000002 12.308907
						CHANNELS 3 Xrotation Yrotation Zrotation
						JOINT LeftArmRoll
						{
							OFFSET 0.000000 -0.000001 6.213745
							CHANNELS 3 Xrotation Yrotation Zrotation
							JOINT LeftForeArm
							{
								OFFSET 0.000000 -0.000003 18.098495
								CHANNELS 3 Xrotation Yrotation Zrotation
								JOINT LeftForeArmRoll
								{
									OFFSET 0.000000 -0.000002 6.972794
									CHANNELS 3 Xrotation Yrotation Zrotation
									JOINT LeftHand
									{
										OFFSET 0.000000 -0.000002 13.992905
										CHANNELS 3 Xrotation Yrotation Zrotation
										End Site
										{
											OFFSET 0.000000 0.000000 0.100006
										}
									}
								}
							}
						}
					}
				}
			}
		}
	}
	JOINT RightUpLeg
	{
		OFFSET -5.535160 0.851454 -1.014999
		CHANNELS 3 Xrotation Yrotation Zrotation
		JOINT RightUpLegRoll
		{
			OFFSET 0.000000 -0.000003 16.407501
			CHANNELS 3 Xrotation Yrotation Zrotation
			JOINT RightLeg
			{
				OFFSET 0.000000 0.000003 -20.318100
				CHANNELS 3 Xrotation Yrotation Zrotation
				JOINT RightLegRoll
				{
					OFFSET 0.000000 -0.000003 20.384598
					CHANNELS 3 Xrotation Yrotation Zrotation
					JOINT RightFoot
					{
						OFFSET 0.000000 -0.000003 16.966805
						CHANNELS 3 Xrotation Yrotation Zrotation
						JOINT RightToeBase
						{
							OFFSET 0.000000 -0.000002 14.183395
							CHANNELS 3 Xrotation Yrotation Zrotation
							End Site
							{
								OFFSET 0.006012 0.791743 6.868896
							}
						}
					}
				}
			}
		}
	}
	JOINT LeftUpLeg
	{
		OFFSET 5.535160 0.851454 -1.014999
		CHANNELS 3 Xrotation Yrotation Zrotation
		JOINT LeftUpLegRoll
		{
			OFFSET 0.000000 -0.000003 16.407600
			CHANNELS 3 Xrotation Yrotation Zrotation
			JOINT LeftLeg
			{
				OFFSET 0.000000 -0.000003 20.318100
				CHANNELS 3 Xrotation Yrotation Zrotation
				JOINT LeftLegRoll
				{
					OFFSET 0.000000 -0.000004 20.573105
					CHANNELS 3 Xrotation Yrotation Zrotation
					JOINT LeftFoot
					{
						OFFSET 0.000000 -0.000003 16.778305
						CHANNELS 3 Xrotation Yrotation Zrotation
						JOINT LeftToeBase
						{
							OFFSET 0.000000 -0.000002 14.183395
							CHANNELS 3 Xrotation Yrotation Zrotation
							End Site
							{
								OFFSET -0.026943 0.791745 6.868896
							}
						}
					}
				}
			}
		}
	}
}
MOTION
Frames: 6
Frame Time: 0.041667
47.165001 -13.797513 84.170807 -0.716911 0.365980 -4.402001 -1.499862 0.225922 0.109397 1.002671 0.450428 0.216135 2.647773 0.452975 0.210678 11.505674 -6.060168 3.261951 -9.424987 2.199719 3.945022 -2.806254 -65.993554 -3.985051 -47.649592 -133.330306 -97.489319 0.000002 0.000003 -0.000010 93.226010 1.738903 -9.330963 0.000007 0.000004 -2.999999 -5.000022 -7.999934 0.000021 -15.069964 59.279786 17.791775 -38.990637 130.880385 86.511832 -0.000002 0.000000 0.000002 84.485390 3.393069 4.376759 0.000006 -0.000009 3.000012 -5.000034 7.999942 -0.000020 -6.372006 -176.720339 0.222504 -179.999991 0.000005 -0.855996 168.872288 -0.769267 -1.067310 0.000001 -0.000001 0.082562 69.513724 5.593652 5.499282 25.456948 -7.355622 0.000005 -0.082842 175.500003 -3.377329 -0.000005 -0.000004 -1.044190 -11.260633 1.405709 0.933259 0.000003 0.000002 -0.310086 74.562498 -6.582109 -2.607393 25.460843 7.354807 -0.000720 
47.165298 -13.792612 84.172997 -0.711431 0.366321 -4.408242 -1.501055 0.225268 0.110091 1.000281 0.449643 0.218456 2.645383 0.452212 0.213005 11.534760 -6.033176 3.272813 -9.469247 2.168591 3.952219 -2.768622 -65.983022 -3.941274 -47.670493 -133.249068 -97.277009 0.000001 0.000005 -0.000012 93.194386 1.718286 -9.291920 0.000002 0.000006 -3.000003 -5.000022 -7.999930 0.000021 -15.115173 59.268017 17.845024 -38.954714 130.783711 86.375720 -0.000003 0.000003 0.000001 84.513919 3.351441 4.407321 0.000006 -0.000012 3.000011 -5.000033 7.999938 -0.000015 -6.387149 -176.730366 0.203884 -179.999991 0.000005 -0.855995 168.857139 -0.748614 -1.068455 0.000001 -0.000001 0.082534 69.511867 5.590135 5.508137 25.456952 -7.355623 0.000005 -0.095979 175.501014 -3.372791 -0.000005 -0.000004 -1.043630 -11.276419 1.402131 0.934022 0.000003 0.000002 -0.310077 74.570107 -6.579690 -2.615119 25.460847 7.354808 -0.000721 
47.161800 -13.791612 84.176697 -0.707819 0.367526 -4.413549 -1.502084 0.224339 0.110755 0.998187 0.448476 0.220958 2.643292 0.451068 0.215519 11.566747 -6.005285 3.282909 -9.512322 2.135920 3.958385 -2.722018 -65.974259 -3.887500 -47.690153 -133.162638 -97.048587 0.000001 0.000002 -0.000012 93.164648 1.697129 -9.251871 0.000007 0.000004 -2.999998 -5.000022 -7.999929 0.000017 -15.156470 59.260367 17.893735 -38.921150 130.685821 86.234082 0.000001 0.000001 0.000001 84.544450 3.306240 4.440666 0.000007 -0.000015 3.000011 -5.000033 7.999944 -0.000014 -6.400581 -176.744368 0.182024 -179.999991 0.000005 -0.854998 168.840009 -0.723065 -1.069644 0.000001 -0.000001 0.082506 69.509961 5.586030 5.518692 25.456952 -7.355623 0.000005 -0.108860 175.500003 -3.368609 -0.000005 -0.000005 -1.042990 -11.296205 1.397661 0.934987 0.000003 0.000002 -0.310112 74.579867 -6.576694 -2.624541 25.460845 7.354806 -0.000709 
47.163097 -13.792912 84.176689 -0.705867 0.369497 -4.418028 -1.502973 0.223173 0.111395 0.996383 0.446974 0.223616 2.641482 0.449588 0.218191 11.600929 -5.976614 3.292292 -9.554011 2.102021 3.963632 -2.667642 -65.966992 -3.825067 -47.706723 -133.073259 -96.802973 0.000000 0.000005 -0.000010 93.136767 1.675454 -9.210871 0.000004 0.000003 -3.000001 -5.000020 -7.999932 0.000022 -15.194203 59.256372 17.938331 -38.890800 130.585963 86.088995 -0.000000 -0.000002 -0.000002 84.576880 3.257811 4.476335 0.000007 -0.000012 3.000012 -5.000033 7.999943 -0.000013 -6.412400 -176.760351 0.157303 -179.999991 0.000005 -0.854997 168.821171 -0.693589 -1.070064 0.000002 -0.000001 0.082477 69.508130 5.581421 5.530548 25.456952 -7.355624 0.000005 -0.121400 175.498009 -3.364921 -0.000005 -0.000004 -1.042280 -11.319286 1.392547 0.936121 0.000004 0.000001 -0.310178 74.591383 -6.573220 -2.635397 25.460942 7.354801 -0.000723 
47.161705 -13.776712 84.172897 -0.705381 0.372142 -4.421778 -1.503719 0.221810 0.112017 0.994854 0.445181 0.226397 2.639961 0.447820 0.220989 11.636805 -5.947318 3.301056 -9.594114 2.067192 3.968071 -2.606647 -65.961241 -3.755276 -47.722067 -132.979794 -96.544130 0.000000 0.000005 -0.000010 93.110368 1.653289 -9.168890 0.000003 0.000004 -2.999998 -5.000024 -7.999935 0.000021 -15.228656 59.255409 17.979141 -38.863039 130.486024 85.939851 -0.000001 0.000000 -0.000000 84.611099 3.206531 4.514146 0.000007 -0.000008 3.000011 -5.000034 7.999938 -0.000014 -6.422698 -176.778300 0.130326 -179.999991 0.000005 -0.854998 168.801145 -0.661166 -1.071902 0.000001 -0.000001 0.082449 69.506211 5.576460 5.543446 25.456953 -7.355623 0.000004 -0.133497 175.495003 -3.361803 -0.000005 -0.000004 -1.041520 -11.344867 1.387059 0.937394 0.000002 0.000002 -0.310263 74.604066 -6.569416 -2.647439 25.460939 7.354801 -0.000714 
47.160599 -13.779712 84.176003 -0.706148 0.375366 -4.424893 -1.504328 0.220290 0.112630 0.993592 0.443146 0.229271 2.638690 0.445812 0.223885 11.673677 -5.917524 3.309277 -9.632437 2.031740 3.971839 -2.540244 -65.956644 -3.679449 -47.734519 -132.884595 -96.271325 0.000002 0.000005 -0.000008 93.085438 1.630687 -9.126930 0.000007 0.000006 -3.000001 -5.000024 -7.999935 0.000021 -15.260369 59.257314 18.016767 -38.838249 130.386180 85.787961 0.000000 0.000001 0.000001 84.647067 3.152666 4.553915 0.000008 -0.000010 3.000009 -5.000031 7.999943 -0.000014 -6.431573 -176.797247 0.101583 -179.999991 0.000005 -0.854998 168.780326 -0.626789 -1.073323 0.000001 -0.000001 0.082420 69.504326 5.571230 5.557093 25.456953 -7.355621 0.000005 -0.145068 175.491015 -3.359395 -0.000005 -0.000004 -1.040710 -11.372349 1.381474 0.938784 0.000003 0.000001 -0.310355 74.617720 -6.565307 -2.660484 25.460941 7.354810 -0.000717 
